<svg class="svg-icon" style="width: 1em; height: 1em;vertical-align: middle;fill: currentColor;overflow: hidden;" viewBox="0 0 1024 1024" version="1.1" xmlns="http://www.w3.org/2000/svg"><path d="M495.046358 983.311258c-10.172185 0-16.953642-6.781457-16.953643-16.953642V16.953642c0-10.172185 6.781457-16.953642 16.953643-16.953642s16.953642 6.781457 16.953642 16.953642v949.403974c0 10.172185-6.781457 16.953642-16.953642 16.953642z" fill="" /><path d="M969.748344 508.609272H20.344371c-10.172185 0-16.953642-6.781457-16.953643-16.953643s6.781457-16.953642 16.953643-16.953642h949.403973c10.172185 0 16.953642 6.781457 16.953643 16.953642s-6.781457 16.953642-16.953643 16.953643zM868.02649 237.350993h-745.960265c-10.172185 0-16.953642-6.781457-16.953642-16.953642s6.781457-16.953642 16.953642-16.953642h745.960265c10.172185 0 16.953642 6.781457 16.953642 16.953642s-6.781457 16.953642-16.953642 16.953642zM495.046358 745.960265h-406.887418c-10.172185 0-16.953642-6.781457-16.953642-16.953642s6.781457-16.953642 16.953642-16.953643h406.887418c10.172185 0 16.953642 6.781457 16.953642 16.953643s-6.781457 16.953642-16.953642 16.953642z" fill="" /><path d="M495.046358 983.311258C335.682119 983.311258 206.834437 762.913907 206.834437 491.655629S335.682119 0 495.046358 0 783.258278 220.397351 783.258278 491.655629c0 10.172185-6.781457 16.953642-16.953642 16.953643s-16.953642-6.781457-16.953643-16.953643C749.350993 240.741722 634.066225 33.907285 495.046358 33.907285S240.741722 240.741722 240.741722 491.655629s115.284768 457.748344 254.304636 457.748345c10.172185 0 16.953642 6.781457 16.953642 16.953642s-6.781457 16.953642-16.953642 16.953642z" fill="" /><path d="M495.046358 983.311258C223.788079 983.311258 3.390728 762.913907 3.390728 491.655629S223.788079 0 495.046358 0 986.701987 220.397351 986.701987 491.655629c0 16.953642 0 33.907285-3.390729 54.251656 0 10.172185-10.172185 16.953642-20.344371 13.562914-10.172185 0-16.953642-10.172185-13.562913-20.344371 3.390728-16.953642 3.390728-33.907285 3.390728-47.470199C952.794702 240.741722 745.960265 33.907285 495.046358 33.907285S37.298013 240.741722 37.298013 491.655629s206.834437 457.748344 457.748345 457.748345c20.344371 0 40.688742 0 64.423841-6.781457 10.172185 0 16.953642 6.781457 20.344371 13.562913 0 10.172185-6.781457 16.953642-13.562914 20.344371-27.125828 6.781457-50.860927 6.781457-71.205298 6.781457z" fill="" /><path d="M783.258278 891.761589c-57.642384 0-101.721854-44.07947-101.721854-101.721854s44.07947-101.721854 101.721854-101.721854 101.721854 44.07947 101.721854 101.721854-44.07947 101.721854-101.721854 101.721854z m0-169.536423c-37.298013 0-67.81457 30.516556-67.814569 67.814569s30.516556 67.81457 67.814569 67.81457 67.81457-30.516556 67.81457-67.81457-30.516556-67.81457-67.81457-67.814569z" fill="" /><path d="M830.728477 1024c-6.781457 0-13.562914-3.390728-16.953643-10.172185-10.172185-23.735099-50.860927-23.735099-61.033112 0-3.390728 6.781457-10.172185 10.172185-20.344371 10.172185-47.470199-10.172185-88.15894-33.907285-122.066225-67.81457-6.781457-6.781457-6.781457-16.953642 0-23.735099 6.781457-10.172185 10.172185-27.125828 3.390728-37.298013-6.781457-13.562914-20.344371-20.344371-37.298013-16.953643-6.781457 0-16.953642-3.390728-20.344371-10.172185-6.781457-23.735099-10.172185-50.860927-10.172185-77.986755 0-20.344371 3.390728-40.688742 6.781457-61.033112 0-3.390728 3.390728-6.781457 6.781457-10.172186 3.390728-3.390728 10.172185-3.390728 13.562914 0 13.562914 3.390728 30.516556-3.390728 37.298013-16.953642 6.781457-13.562914 3.390728-33.907285-6.781457-44.07947-3.390728-3.390728-6.781457-6.781457-6.781457-10.172186s0-10.172185 3.390728-13.562914c33.907285-37.298013 74.596026-64.423841 125.456954-74.596026 3.390728 0 10.172185 0 13.562914 3.390728 3.390728 3.390728 6.781457 6.781457 6.781457 10.172186 3.390728 16.953642 16.953642 30.516556 33.907285 30.516556s30.516556-13.562914 33.907284-30.516556c0-3.390728 3.390728-10.172185 6.781457-10.172186 3.390728-3.390728 10.172185-3.390728 13.562914-3.390728 47.470199 10.172185 91.549669 37.298013 125.456954 74.596026 3.390728 3.390728 3.390728 6.781457 3.390728 13.562914s-3.390728 10.172185-6.781457 10.172186c-13.562914 10.172185-16.953642 27.125828-6.781456 44.07947 6.781457 13.562914 23.735099 20.344371 37.298013 16.953642h13.562914c3.390728 3.390728 6.781457 6.781457 6.781457 10.172186 6.781457 20.344371 6.781457 40.688742 6.781457 61.033112 0 27.125828-3.390728 54.251656-13.562914 77.986755-3.390728 6.781457-10.172185 13.562914-20.344371 10.172185-13.562914-3.390728-27.125828 3.390728-37.298013 16.953643-6.781457 10.172185-6.781457 27.125828 3.390728 37.298013 6.781457 6.781457 3.390728 16.953642 0 23.735099-33.907285 33.907285-74.596026 57.642384-122.066225 67.81457h6.781457zM783.258278 959.576159c20.344371 0 40.688742 10.172185 54.251656 27.125828 30.516556-6.781457 57.642384-23.735099 81.377483-44.07947-10.172185-20.344371-6.781457-44.07947 3.390729-61.033113 10.172185-20.344371 33.907285-33.907285 57.642384-33.907285 6.781457-16.953642 6.781457-37.298013 6.781457-54.251655 0-13.562914 0-23.735099-3.390729-37.298014-23.735099 0-47.470199-13.562914-61.033112-33.907284-13.562914-23.735099-10.172185-50.860927 3.390728-71.205298-23.735099-23.735099-50.860927-40.688742-81.377483-47.470199-10.172185 23.735099-33.907285 40.688742-61.033113 40.688742s-50.860927-16.953642-61.033112-40.688742c-30.516556 10.172185-57.642384 27.125828-81.377484 47.470199 13.562914 20.344371 16.953642 50.860927 3.390729 71.205298-13.562914 20.344371-33.907285 33.907285-61.033113 33.907284-3.390728 10.172185-3.390728 23.735099-3.390728 33.907285 0 16.953642 3.390728 37.298013 6.781456 54.251656 23.735099 0 44.07947 13.562914 57.642385 33.907284 10.172185 20.344371 13.562914 40.688742 3.390728 61.033113 23.735099 20.344371 50.860927 37.298013 81.377484 44.07947 13.562914-13.562914 33.907285-23.735099 54.251655-23.735099z" fill="" /></svg>